<?xml version="1.0" encoding="UTF-8"?>
<svg xmlns="http://www.w3.org/2000/svg" xmlns:xlink="http://www.w3.org/1999/xlink" width="30px" height="30px" viewBox="0 0 30 30" version="1.1">
<g id="surface1">
<path style=" stroke:none;fill-rule:nonzero;fill:rgb(17.647059%,24.313725%,31.372549%);fill-opacity:1;" d="M 16.828125 20.976562 C 15.679688 20.695312 13.804688 20.226562 13.03125 19.992188 L 9.5625 22.359375 L 6.117188 19.992188 C 5.34375 20.203125 3.492188 20.671875 2.320312 20.976562 C 1.710938 21.117188 1.265625 21.632812 1.195312 22.242188 C 1.007812 23.71875 0.632812 27.984375 0.632812 27.984375 L 18.515625 27.984375 C 18.515625 27.984375 18.140625 23.71875 17.953125 22.242188 C 17.859375 21.632812 17.414062 21.117188 16.828125 20.976562 Z M 5.859375 15.773438 C 6.210938 17.554688 7.757812 18.84375 9.585938 18.84375 C 11.414062 18.84375 12.960938 17.554688 13.289062 15.773438 L 13.875 12.796875 C 14.203125 10.40625 12.351562 8.273438 9.9375 8.273438 L 9.257812 8.273438 C 6.84375 8.273438 4.992188 10.40625 5.320312 12.796875 Z M 5.859375 15.773438 "/>
<path style=" stroke:none;fill-rule:nonzero;fill:rgb(11.372549%,45.882353%,72.54902%);fill-opacity:1;" d="M 16.710938 9.515625 C 17.0625 11.296875 18.609375 12.585938 20.4375 12.585938 C 22.265625 12.585938 23.8125 11.296875 24.140625 9.515625 L 24.726562 6.539062 C 25.054688 4.148438 23.203125 2.015625 20.789062 2.015625 L 20.109375 2.015625 C 17.695312 2.015625 15.84375 4.148438 16.171875 6.539062 Z M 18.046875 4.21875 C 18.5625 3.632812 19.3125 3.28125 20.085938 3.28125 L 20.765625 3.28125 C 21.539062 3.28125 22.289062 3.609375 22.804688 4.21875 C 23.320312 4.804688 23.554688 5.554688 23.460938 6.328125 L 22.898438 9.257812 C 22.664062 10.429688 21.632812 11.296875 20.4375 11.296875 C 19.242188 11.296875 18.210938 10.453125 17.976562 9.257812 L 17.390625 6.328125 C 17.296875 5.578125 17.53125 4.804688 18.046875 4.21875 Z M 28.804688 15.984375 C 28.734375 15.375 28.289062 14.859375 27.679688 14.71875 C 26.53125 14.4375 24.65625 13.96875 23.882812 13.757812 L 20.4375 16.101562 L 16.96875 13.757812 C 16.546875 13.875 15.84375 14.0625 15.09375 14.25 L 14.835938 15.632812 C 15.492188 15.46875 16.195312 15.28125 16.734375 15.140625 L 20.414062 17.648438 L 24.09375 15.140625 C 25.054688 15.398438 26.507812 15.75 27.351562 15.960938 C 27.445312 15.984375 27.515625 16.054688 27.515625 16.148438 C 27.632812 17.0625 27.820312 19.078125 27.960938 20.460938 L 18.703125 20.460938 C 19.007812 20.8125 19.242188 21.257812 19.359375 21.75 L 29.367188 21.75 C 29.367188 21.726562 28.992188 17.484375 28.804688 15.984375 Z M 28.804688 15.984375 "/>
</g>
</svg>
