<?xml version="1.0" encoding="UTF-8"?>
<svg xmlns="http://www.w3.org/2000/svg" xmlns:xlink="http://www.w3.org/1999/xlink" width="30px" height="30px" viewBox="0 0 30 30" version="1.1">
<g id="surface1">
<path style=" stroke:none;fill-rule:evenodd;fill:rgb(60.784314%,78.823529%,100%);fill-opacity:1;" d="M 18.644531 15.09375 C 18.644531 13.085938 17.007812 11.449219 15 11.449219 C 12.992188 11.449219 11.355469 13.085938 11.355469 15.09375 C 11.355469 17.101562 12.992188 18.738281 15 18.738281 C 17.007812 18.738281 18.644531 17.101562 18.644531 15.09375 Z M 12.140625 19.75 C 12.074219 19.707031 11.992188 19.703125 11.921875 19.734375 L 10.992188 20.148438 L 9.945312 19.105469 L 10.359375 18.171875 C 10.390625 18.101562 10.386719 18.019531 10.34375 17.953125 C 10.042969 17.460938 9.820312 16.925781 9.6875 16.363281 C 9.667969 16.285156 9.613281 16.226562 9.542969 16.199219 L 8.589844 15.832031 L 8.589844 14.355469 L 9.542969 13.988281 C 9.613281 13.960938 9.667969 13.902344 9.6875 13.824219 C 9.820312 13.261719 10.042969 12.726562 10.347656 12.234375 C 10.386719 12.167969 10.390625 12.085938 10.359375 12.015625 L 9.945312 11.085938 L 10.992188 10.039062 L 11.921875 10.453125 C 11.992188 10.484375 12.074219 10.480469 12.140625 10.441406 C 12.632812 10.136719 13.167969 9.914062 13.730469 9.78125 C 13.808594 9.761719 13.867188 9.707031 13.894531 9.636719 L 14.261719 8.683594 L 15.738281 8.683594 L 16.105469 9.636719 C 16.132812 9.707031 16.195312 9.761719 16.269531 9.78125 C 16.832031 9.914062 17.367188 10.136719 17.859375 10.441406 C 17.925781 10.480469 18.007812 10.484375 18.078125 10.453125 L 19.011719 10.039062 L 20.054688 11.085938 L 19.640625 12.015625 C 19.609375 12.085938 19.613281 12.167969 19.65625 12.234375 C 19.957031 12.726562 20.179688 13.261719 20.316406 13.824219 C 20.332031 13.902344 20.386719 13.960938 20.457031 13.988281 L 21.410156 14.355469 L 21.410156 15.832031 L 20.457031 16.199219 C 20.386719 16.226562 20.332031 16.289062 20.3125 16.363281 C 20.179688 16.925781 19.957031 17.460938 19.65625 17.953125 C 19.613281 18.019531 19.609375 18.101562 19.640625 18.171875 L 20.054688 19.105469 L 19.007812 20.148438 L 18.078125 19.734375 C 18.007812 19.703125 17.925781 19.707031 17.859375 19.75 C 17.367188 20.050781 16.832031 20.273438 16.269531 20.410156 C 16.191406 20.425781 16.132812 20.480469 16.105469 20.550781 L 15.738281 21.503906 L 14.261719 21.503906 L 13.894531 20.550781 C 13.867188 20.480469 13.804688 20.425781 13.730469 20.410156 C 13.167969 20.273438 12.632812 20.050781 12.140625 19.75 Z M 22.03125 23.113281 C 20.246094 25.230469 17.769531 26.671875 15.039062 27.144531 C 15.027344 27.148438 15.011719 27.148438 15 27.148438 C 14.988281 27.148438 14.972656 27.148438 14.960938 27.144531 C 12.230469 26.671875 9.753906 25.230469 7.96875 23.113281 C 6.179688 20.992188 5.179688 18.296875 5.179688 15.519531 L 5.179688 7.382812 C 5.179688 7.289062 5.234375 7.203125 5.320312 7.167969 L 14.90625 3.058594 C 14.964844 3.03125 15.035156 3.03125 15.09375 3.058594 L 24.679688 7.167969 C 24.765625 7.203125 24.820312 7.289062 24.820312 7.382812 L 24.820312 15.519531 C 24.820312 18.296875 23.820312 20.992188 22.03125 23.113281 Z M 15 29.292969 L 14.597656 29.222656 C 7.921875 28.058594 3.070312 22.296875 3.070312 15.519531 L 3.070312 5.835938 L 15 0.722656 L 26.929688 5.835938 L 26.929688 15.519531 C 26.929688 22.296875 22.078125 28.054688 15.402344 29.222656 Z M 15 29.292969 "/>
<path style=" stroke:none;fill-rule:evenodd;fill:rgb(34.117647%,64.313725%,100%);fill-opacity:1;" d="M 15 12.152344 C 16.621094 12.152344 17.941406 13.472656 17.941406 15.09375 C 17.941406 16.714844 16.621094 18.035156 15 18.035156 C 13.378906 18.035156 12.058594 16.714844 12.058594 15.09375 C 12.058594 13.472656 13.378906 12.152344 15 12.152344 Z M 11.121094 15.09375 C 11.121094 17.234375 12.863281 18.972656 15 18.972656 C 17.136719 18.972656 18.878906 17.234375 18.878906 15.09375 C 18.878906 12.957031 17.136719 11.214844 15 11.214844 C 12.863281 11.214844 11.121094 12.957031 11.121094 15.09375 Z M 14.421875 8.917969 L 14.113281 9.71875 C 14.058594 9.863281 13.9375 9.972656 13.785156 10.007812 C 13.246094 10.136719 12.734375 10.347656 12.261719 10.640625 C 12.132812 10.71875 11.96875 10.730469 11.828125 10.667969 L 11.042969 10.320312 L 10.226562 11.136719 L 10.574219 11.921875 C 10.636719 12.0625 10.625 12.226562 10.546875 12.355469 C 10.253906 12.828125 10.042969 13.339844 9.914062 13.878906 C 9.878906 14.03125 9.769531 14.152344 9.625 14.207031 L 8.824219 14.515625 L 8.824219 15.671875 L 9.625 15.980469 C 9.769531 16.035156 9.878906 16.15625 9.914062 16.308594 C 10.042969 16.847656 10.253906 17.359375 10.546875 17.832031 C 10.625 17.964844 10.636719 18.125 10.574219 18.265625 L 10.226562 19.050781 L 11.042969 19.867188 L 11.828125 19.519531 C 11.96875 19.457031 12.132812 19.46875 12.261719 19.546875 C 12.734375 19.839844 13.246094 20.050781 13.785156 20.179688 C 13.9375 20.214844 14.058594 20.324219 14.113281 20.46875 L 14.421875 21.269531 L 15.578125 21.269531 L 15.886719 20.46875 C 15.941406 20.324219 16.0625 20.214844 16.214844 20.179688 C 16.753906 20.050781 17.265625 19.839844 17.738281 19.546875 C 17.867188 19.46875 18.03125 19.457031 18.171875 19.519531 L 18.957031 19.867188 L 19.773438 19.050781 L 19.425781 18.265625 C 19.363281 18.125 19.375 17.960938 19.453125 17.832031 C 19.746094 17.359375 19.957031 16.847656 20.085938 16.308594 C 20.121094 16.15625 20.230469 16.035156 20.375 15.980469 L 21.175781 15.671875 L 21.175781 14.515625 L 20.375 14.207031 C 20.230469 14.152344 20.121094 14.03125 20.085938 13.878906 C 19.957031 13.339844 19.746094 12.828125 19.453125 12.355469 C 19.375 12.226562 19.363281 12.0625 19.425781 11.921875 L 19.773438 11.136719 L 18.957031 10.320312 L 18.171875 10.667969 C 18.03125 10.730469 17.867188 10.71875 17.738281 10.640625 C 17.265625 10.347656 16.753906 10.136719 16.214844 10.007812 C 16.0625 9.972656 15.941406 9.863281 15.886719 9.71875 L 15.578125 8.917969 Z M 13.664062 8.28125 L 13.328125 9.160156 C 12.859375 9.289062 12.410156 9.476562 11.988281 9.714844 L 11.128906 9.332031 C 10.953125 9.253906 10.742188 9.292969 10.605469 9.429688 L 9.335938 10.699219 C 9.199219 10.839844 9.160156 11.046875 9.238281 11.222656 L 9.621094 12.082031 C 9.382812 12.503906 9.195312 12.953125 9.066406 13.421875 L 8.1875 13.757812 C 8.007812 13.828125 7.886719 14 7.886719 14.195312 L 7.886719 15.992188 C 7.886719 16.1875 8.007812 16.359375 8.1875 16.429688 L 9.066406 16.769531 C 9.195312 17.234375 9.382812 17.683594 9.621094 18.105469 L 9.238281 18.964844 C 9.160156 19.144531 9.199219 19.351562 9.335938 19.488281 L 10.605469 20.757812 C 10.746094 20.894531 10.953125 20.933594 11.128906 20.855469 L 11.988281 20.472656 C 12.410156 20.710938 12.859375 20.898438 13.328125 21.03125 L 13.664062 21.90625 C 13.734375 22.085938 13.90625 22.207031 14.101562 22.207031 L 15.898438 22.207031 C 16.09375 22.207031 16.265625 22.085938 16.335938 21.90625 L 16.671875 21.03125 C 17.140625 20.898438 17.589844 20.710938 18.011719 20.472656 L 18.871094 20.855469 C 19.046875 20.933594 19.257812 20.894531 19.394531 20.757812 L 20.664062 19.488281 C 20.800781 19.351562 20.839844 19.144531 20.761719 18.964844 L 20.378906 18.105469 C 20.617188 17.683594 20.804688 17.234375 20.933594 16.769531 L 21.8125 16.429688 C 21.992188 16.359375 22.113281 16.1875 22.113281 15.992188 L 22.113281 14.195312 C 22.113281 14 21.992188 13.828125 21.8125 13.757812 L 20.9375 13.421875 C 20.804688 12.953125 20.617188 12.503906 20.378906 12.082031 L 20.761719 11.222656 C 20.839844 11.046875 20.800781 10.839844 20.664062 10.699219 L 19.394531 9.429688 C 19.253906 9.292969 19.046875 9.253906 18.871094 9.332031 L 18.011719 9.714844 C 17.589844 9.476562 17.140625 9.289062 16.671875 9.160156 L 16.335938 8.28125 C 16.265625 8.101562 16.09375 7.980469 15.898438 7.980469 L 14.101562 7.980469 C 13.90625 7.980469 13.734375 8.101562 13.664062 8.28125 Z M 24.117188 7.691406 L 15 3.785156 L 5.882812 7.691406 L 5.882812 15.519531 C 5.882812 20.8125 9.796875 25.492188 15 26.4375 C 20.203125 25.492188 24.117188 20.8125 24.117188 15.519531 Z M 14.816406 2.84375 L 5.226562 6.953125 C 5.054688 7.023438 4.945312 7.195312 4.945312 7.382812 L 4.945312 15.519531 C 4.945312 18.339844 5.953125 21.089844 7.789062 23.265625 C 9.617188 25.433594 12.152344 26.894531 14.917969 27.375 C 14.945312 27.382812 14.972656 27.382812 15 27.382812 C 15.027344 27.382812 15.054688 27.382812 15.082031 27.375 C 17.847656 26.894531 20.382812 25.433594 22.210938 23.265625 C 24.046875 21.089844 25.054688 18.339844 25.054688 15.519531 L 25.054688 7.382812 C 25.054688 7.195312 24.945312 7.023438 24.773438 6.953125 L 15.183594 2.84375 C 15.066406 2.792969 14.933594 2.792969 14.816406 2.84375 Z M 26.695312 15.519531 L 26.695312 5.992188 L 15 0.980469 L 3.304688 5.992188 L 3.304688 15.519531 C 3.304688 22.179688 8.070312 27.847656 14.636719 28.992188 L 15 29.054688 L 15.363281 28.992188 C 21.929688 27.847656 26.695312 22.179688 26.695312 15.519531 Z M 27.347656 5.25 L 15.183594 0.0390625 C 15.066406 -0.0117188 14.933594 -0.0117188 14.816406 0.0390625 L 2.648438 5.25 C 2.476562 5.324219 2.367188 5.496094 2.367188 5.683594 L 2.367188 15.519531 C 2.367188 18.9375 3.589844 22.277344 5.808594 24.914062 C 8.027344 27.550781 11.105469 29.328125 14.476562 29.914062 L 14.917969 29.992188 C 14.945312 29.996094 14.972656 30 15 30 C 15.027344 30 15.054688 29.996094 15.082031 29.992188 L 15.523438 29.914062 C 18.894531 29.328125 21.972656 27.550781 24.191406 24.914062 C 26.410156 22.277344 27.632812 18.9375 27.632812 15.519531 L 27.632812 5.683594 C 27.632812 5.496094 27.523438 5.324219 27.347656 5.25 Z M 27.347656 5.25 "/>
</g>
</svg>
