<?xml version="1.0" encoding="UTF-8"?>
<svg xmlns="http://www.w3.org/2000/svg" xmlns:xlink="http://www.w3.org/1999/xlink" width="30px" height="30px" viewBox="0 0 30 30" version="1.1">
<g id="surface1">
<path style=" stroke:none;fill-rule:nonzero;fill:rgb(100%,100%,100%);fill-opacity:1;" d="M 0.617188 26.945312 L 1.476562 23.707031 C 2.117188 21.292969 4.125 19.492188 6.585938 19.113281 L 9.621094 18.796875 C 10.757812 18.796875 11.675781 17.875 11.675781 16.738281 L 11.675781 8.125 L 18.328125 8.125 L 18.328125 16.738281 C 18.328125 17.875 19.246094 18.796875 20.382812 18.796875 L 23.421875 19.113281 C 25.882812 19.492188 27.890625 21.292969 28.53125 23.707031 L 29.390625 26.945312 "/>
<path style=" stroke:none;fill-rule:nonzero;fill:rgb(100%,72.156863%,0%);fill-opacity:1;" d="M 4.066406 26.945312 L 4.976562 24.390625 C 5.339844 23.375 6.296875 22.691406 7.375 22.691406 L 22.625 22.691406 C 23.703125 22.691406 24.667969 23.375 25.023438 24.390625 L 25.933594 26.945312 M 21.625 5.332031 L 21.625 13.421875 C 21.625 14.210938 21.226562 14.945312 20.5625 15.359375 C 16.5 17.847656 12.746094 17.855469 9.292969 15.375 C 8.707031 14.953125 8.375 14.261719 8.375 13.542969 L 8.375 5.332031 C 8.375 4.070312 9.394531 3.054688 10.652344 3.054688 L 19.34375 3.054688 C 20.609375 3.054688 21.625 4.070312 21.625 5.332031 Z M 21.625 5.332031 "/>
<path style=" stroke:none;fill-rule:nonzero;fill:rgb(100%,100%,100%);fill-opacity:1;" d="M 19.125 8.726562 L 19.125 6.597656 C 19.125 6.015625 18.65625 5.550781 18.078125 5.550781 L 11.921875 5.550781 C 11.34375 5.550781 10.875 6.019531 10.875 6.597656 L 10.875 8.726562 C 10.875 9.304688 11.34375 9.773438 11.921875 9.773438 L 18.078125 9.773438 C 18.65625 9.773438 19.125 9.304688 19.125 8.726562 Z M 19.125 8.726562 "/>
<path style=" stroke:none;fill-rule:nonzero;fill:rgb(0%,0%,0%);fill-opacity:1;" d="M 29.976562 26.789062 L 29.121094 23.546875 C 28.421875 20.90625 26.21875 18.925781 23.484375 18.503906 L 20.449219 18.1875 C 20.425781 18.1875 20.40625 18.179688 20.382812 18.179688 C 19.640625 18.179688 19.03125 17.613281 18.953125 16.886719 C 19.59375 16.609375 20.234375 16.277344 20.882812 15.878906 C 21.71875 15.363281 22.242188 14.425781 22.242188 13.421875 L 22.242188 5.332031 C 22.242188 3.738281 20.945312 2.4375 19.347656 2.4375 L 10.652344 2.4375 C 9.058594 2.4375 7.757812 3.734375 7.757812 5.332031 L 7.757812 13.546875 C 7.757812 14.476562 8.195312 15.34375 8.929688 15.878906 C 9.609375 16.371094 10.304688 16.769531 11.015625 17.074219 C 10.863281 17.707031 10.296875 18.1875 9.617188 18.1875 C 9.578125 18.1875 7.40625 18.421875 6.484375 18.515625 C 3.777344 18.9375 1.574219 20.917969 0.878906 23.554688 L 0.0234375 26.789062 C -0.0625 27.117188 0.128906 27.453125 0.457031 27.539062 C 0.835938 27.625 1.125 27.398438 1.207031 27.105469 L 2.070312 23.867188 C 2.636719 21.726562 4.40625 20.117188 6.554688 19.742188 L 6.554688 22.195312 C 5.570312 22.464844 4.75 23.195312 4.398438 24.1875 L 3.492188 26.742188 C 3.378906 27.058594 3.542969 27.410156 3.859375 27.523438 C 4.175781 27.632812 4.53125 27.46875 4.640625 27.152344 L 5.546875 24.597656 C 5.824219 23.824219 6.554688 23.308594 7.375 23.308594 L 22.621094 23.308594 C 23.441406 23.308594 24.175781 23.824219 24.449219 24.597656 L 25.359375 27.152344 C 25.46875 27.46875 25.820312 27.640625 26.136719 27.523438 C 26.453125 27.410156 26.625 27.058594 26.507812 26.742188 L 25.605469 24.1875 C 25.253906 23.199219 24.433594 22.464844 23.449219 22.195312 L 23.449219 19.742188 C 25.617188 20.128906 27.367188 21.734375 27.929688 23.859375 L 28.792969 27.101562 C 28.882812 27.429688 29.214844 27.621094 29.542969 27.535156 C 29.871094 27.453125 30.0625 27.117188 29.976562 26.789062 Z M 9.457031 19.421875 C 11.296875 20.765625 13.148438 21.445312 15 21.445312 C 16.851562 21.445312 18.703125 20.765625 20.542969 19.421875 L 22.226562 19.601562 L 22.226562 22.085938 L 7.78125 22.085938 L 7.78125 19.601562 Z M 8.988281 13.546875 L 8.988281 5.332031 C 8.988281 4.414062 9.738281 3.664062 10.65625 3.664062 L 19.347656 3.664062 C 20.269531 3.664062 21.019531 4.414062 21.019531 5.332031 L 21.019531 13.421875 C 21.019531 14.003906 20.71875 14.542969 20.246094 14.835938 C 16.382812 17.210938 12.914062 17.21875 9.65625 14.875 C 9.234375 14.585938 8.988281 14.078125 8.988281 13.546875 Z M 14.683594 17.84375 C 15.695312 17.84375 16.726562 17.671875 17.78125 17.332031 C 17.945312 18.035156 18.382812 18.632812 18.976562 19 C 16.3125 20.621094 13.695312 20.621094 11.027344 19 C 11.578125 18.65625 12 18.117188 12.1875 17.476562 C 13 17.71875 13.835938 17.84375 14.683594 17.84375 Z M 14.683594 17.84375 "/>
<path style=" stroke:none;fill-rule:nonzero;fill:rgb(0%,0%,0%);fill-opacity:1;" d="M 19.734375 8.726562 L 19.734375 6.597656 C 19.734375 5.683594 18.992188 4.941406 18.078125 4.941406 L 11.921875 4.941406 C 11.007812 4.941406 10.265625 5.683594 10.265625 6.597656 L 10.265625 8.726562 C 10.265625 9.640625 11.007812 10.382812 11.921875 10.382812 L 18.078125 10.382812 C 18.992188 10.382812 19.734375 9.640625 19.734375 8.726562 Z M 11.492188 8.726562 L 11.492188 6.597656 C 11.492188 6.359375 11.683594 6.164062 11.921875 6.164062 L 18.078125 6.164062 C 18.316406 6.164062 18.507812 6.359375 18.507812 6.597656 L 18.507812 8.726562 C 18.507812 8.964844 18.316406 9.15625 18.078125 9.15625 L 11.921875 9.15625 C 11.683594 9.15625 11.492188 8.964844 11.492188 8.726562 Z M 11.492188 8.726562 "/>
</g>
</svg>
